<?xml version="1.0" encoding="utf-8"?>
<!-- Generator: Adobe Illustrator 22.0.0, SVG Export Plug-In . SVG Version: 6.00 Build 0)  -->
<svg version="1.1" id="Layer_1" xmlns="http://www.w3.org/2000/svg" xmlns:xlink="http://www.w3.org/1999/xlink" x="0px" y="0px"
	 viewBox="0 0 439.1 350" style="enable-background:new 0 0 439.1 350;" xml:space="preserve">
<style type="text/css">
	.st0{fill:#005387;}
</style>
<g>
	<path class="st0" d="M14.2,84c-0.4,0.1-0.8,0.5-0.9,0.9c-4,12.3,2.9,31,17.6,28.1c14.7-2.8,8.1-24.3-1.6-32.7
		C29,80,28.5,79.9,28,80.1L14.2,84L14.2,84z"/>
	<path class="st0" d="M27.2,72.1l-1.3-6.7c-1.6-4.8-6.7-7.5-11.6-6.1c-4.9,1.4-7.8,6.4-6.6,11.4L10,77c0.3,0.7,1,1,1.7,0.8l14.5-4.2
		C26.9,73.5,27.4,72.8,27.2,72.1L27.2,72.1z"/>
</g>
<g>
	<path class="st0" d="M58.5,62.7c14-5.4,10-24.9,0-33.2c-0.4-0.3-0.8-0.4-1.3-0.3l-13.8,4c-0.4,0.1-0.8,0.5-0.9,0.9
		C38.7,46.4,44.5,68.1,58.5,62.7L58.5,62.7z"/>
	<path class="st0" d="M57,21l-1.3-6.7C54.1,9.6,48.9,6.9,44,8.3c-4.9,1.4-7.8,6.4-6.6,11.4l2.4,6.4c0.3,0.7,1,1,1.7,0.8L56,22.6
		C56.7,22.4,57.2,21.7,57,21L57,21z"/>
</g>
<g>
	<path class="st0" d="M369.7,168.9c-0.4,0.2-0.6,0.7-0.6,1.1c-0.3,13,11.7,28.8,25,21.8c13.3-7,0.7-25.6-11-30.9
		c-0.4-0.2-0.9-0.2-1.3,0.1L369.7,168.9L369.7,168.9z"/>
	<path class="st0" d="M378.7,153.7l-3.2-6c-2.9-4.2-8.6-5.2-12.9-2.5c-4.3,2.8-5.6,8.4-3,12.8l4.1,5.4c0.4,0.6,1.2,0.7,1.9,0.3
		l12.7-8.2C378.8,155.1,379,154.3,378.7,153.7L378.7,153.7z"/>
</g>
<g>
	<path class="st0" d="M364.6,241.5c14-5.4,10-24.9,0-33.2c-0.4-0.3-0.8-0.4-1.3-0.3l-13.8,4c-0.4,0.1-0.8,0.5-0.9,0.9
		C344.8,225.3,350.6,246.9,364.6,241.5L364.6,241.5z"/>
	<path class="st0" d="M363.1,199.9l-1.3-6.7c-1.6-4.8-6.7-7.5-11.6-6.1c-4.9,1.4-7.8,6.4-6.6,11.4l2.4,6.4c0.3,0.7,1,1,1.7,0.8
		l14.5-4.2C362.8,201.3,363.3,200.6,363.1,199.9L363.1,199.9z"/>
</g>
<g>
	<path class="st0" d="M247.3,168.9c0.3,0.4,0.7,0.6,1.1,0.6c13,0.2,28.7-12,21.6-25.2c-7.1-13.2-25.6-0.5-30.8,11.2
		c-0.2,0.4-0.1,0.9,0.1,1.3L247.3,168.9L247.3,168.9z"/>
	<path class="st0" d="M232,160l-6,3.3c-4.1,3-5.2,8.7-2.4,12.9c2.8,4.2,8.4,5.5,12.8,2.9l5.4-4.2c0.6-0.4,0.7-1.3,0.3-1.9l-8.3-12.6
		C233.4,159.9,232.6,159.7,232,160L232,160z"/>
</g>
<g>
	<path class="st0" d="M328.4,182.9c5.8-13.8-11.1-24.4-24-23c-0.5,0.1-0.9,0.3-1.1,0.7l-6.7,12.7c-0.2,0.4-0.2,0.9,0,1.3
		C303,185.9,322.6,196.7,328.4,182.9L328.4,182.9z"/>
	<path class="st0" d="M297.3,155.1l-5.7-3.6c-4.6-2.2-10.1-0.3-12.5,4.2c-2.4,4.5-0.8,10.1,3.6,12.6l6.2,2.7c0.7,0.3,1.4,0,1.8-0.6
		l7-13.4C298.2,156.3,297.9,155.5,297.3,155.1L297.3,155.1z"/>
</g>
<g>
	<path class="st0" d="M207.1,148c0.2,0.4,0.5,0.7,1,0.8c12.7,2.6,30.4-6.5,25.9-20.8c-4.5-14.3-25.1-5.2-32.3,5.4
		c-0.3,0.4-0.3,0.9-0.1,1.3L207.1,148L207.1,148z"/>
	<path class="st0" d="M193.8,136.4l-6.5,2.1c-4.6,2.2-6.7,7.6-4.7,12.2c2,4.7,7.3,7,12,5.2l6-3.1c0.6-0.3,0.9-1.1,0.6-1.8l-5.8-13.9
		C195.2,136.6,194.4,136.2,193.8,136.4L193.8,136.4z"/>
</g>
<g>
	<path class="st0" d="M333.4,123.4c3.1-14.6-15.4-22-27.8-18.2c-0.4,0.1-0.8,0.5-0.9,0.9l-4.3,13.7c-0.1,0.4,0,0.9,0.3,1.3
		C309,131,330.3,138,333.4,123.4L333.4,123.4z"/>
	<path class="st0" d="M297.8,101.8l-6.3-2.5c-4.9-1.3-10,1.5-11.5,6.4c-1.5,4.9,1.1,10,5.9,11.7l6.6,1.5c0.7,0.2,1.4-0.3,1.6-0.9
		l4.5-14.4C298.8,102.8,298.5,102,297.8,101.8L297.8,101.8z"/>
</g>
<g>
	<path class="st0" d="M119.4,203.4c0,0.5,0.2,0.9,0.6,1.1c10.8,7.1,30.7,5.2,31.8-9.7c1.1-14.9-21.3-14.1-32-7
		c-0.4,0.3-0.6,0.7-0.6,1.2L119.4,203.4L119.4,203.4z"/>
	<path class="st0" d="M111.2,187.8l-6.8-0.4c-5.1,0.3-9,4.6-8.9,9.6c0.1,5.1,4.2,9.2,9.2,9.3l6.8-0.7c0.7-0.1,1.3-0.7,1.3-1.4
		l-0.3-15.1C112.5,188.4,112,187.8,111.2,187.8L111.2,187.8z"/>
</g>
<g>
	<path class="st0" d="M163.6,157.6c-1-14.9-20.8-16.9-31.7-9.9c-0.4,0.2-0.6,0.7-0.6,1.1l-0.3,14.4c0,0.5,0.2,0.9,0.6,1.2
		C142.2,171.6,164.6,172.6,163.6,157.6L163.6,157.6z"/>
	<path class="st0" d="M123.4,146.6l-6.8-0.7c-5.1,0.1-9.2,4.2-9.3,9.3c-0.1,5.1,3.8,9.4,8.9,9.7l6.8-0.4c0.7,0,1.3-0.6,1.3-1.4
		l0.3-15.1C124.7,147.3,124.1,146.7,123.4,146.6L123.4,146.6z"/>
</g>
<g>
	<path class="st0" d="M44,150.8c-0.4,0.3-0.6,0.7-0.6,1.2c0.4,13,13.2,28.2,26.1,20.5c12.9-7.6-0.6-25.6-12.6-30.3
		c-0.4-0.2-0.9-0.1-1.3,0.2L44,150.8L44,150.8z"/>
	<path class="st0" d="M52.1,135.1l-3.5-5.8c-3.1-4-8.9-4.8-13-1.8c-4.1,3-5.2,8.7-2.4,12.9l4.4,5.2c0.5,0.6,1.3,0.6,1.9,0.2
		l12.2-8.8C52.3,136.5,52.5,135.7,52.1,135.1L52.1,135.1z"/>
</g>
<g>
	<path class="st0" d="M93.5,130.9c12.8-7.8,5.4-26.3-5.9-32.7c-0.4-0.2-0.9-0.2-1.3,0l-12.9,6.3c-0.4,0.2-0.7,0.6-0.8,1.1
		C71.2,118.4,80.7,138.7,93.5,130.9L93.5,130.9z"/>
	<path class="st0" d="M84.7,90.2l-2.5-6.3c-2.4-4.5-8-6.2-12.5-4c-4.6,2.2-6.5,7.7-4.5,12.3l3.5,5.8c0.4,0.6,1.2,0.9,1.8,0.5
		l13.5-6.7C84.7,91.6,85,90.8,84.7,90.2L84.7,90.2z"/>
</g>
<g>
	<path class="st0" d="M408.1,250.3c-0.4,0.1-0.8,0.4-1,0.9c-4.3,12.2,2.4,31,17.1,28.5c14.7-2.6,8.5-24.1-1-32.7
		c-0.3-0.3-0.8-0.4-1.3-0.3L408.1,250.3L408.1,250.3z"/>
	<path class="st0" d="M421.3,238.5l-1.2-6.7c-1.5-4.9-6.6-7.6-11.5-6.3c-4.9,1.3-7.9,6.3-6.8,11.2l2.3,6.4c0.2,0.7,1,1.1,1.7,0.9
		l14.6-3.9C421,239.9,421.4,239.2,421.3,238.5L421.3,238.5z"/>
</g>
<g>
	<path class="st0" d="M386.9,323c14-5.4,10-24.9,0-33.2c-0.4-0.3-0.8-0.4-1.3-0.3l-13.8,4c-0.4,0.1-0.8,0.5-0.9,0.9
		C367.1,306.7,372.9,328.4,386.9,323L386.9,323z"/>
	<path class="st0" d="M385.4,281.4l-1.3-6.7c-1.6-4.8-6.7-7.5-11.6-6.1c-4.9,1.4-7.8,6.4-6.6,11.4l2.4,6.4c0.3,0.7,1,1,1.7,0.8
		l14.5-4.2C385.1,282.8,385.6,282.1,385.4,281.4L385.4,281.4z"/>
</g>
</svg>
