<?xml version="1.0" encoding="utf-8"?>
<!-- Generator: Adobe Illustrator 22.0.0, SVG Export Plug-In . SVG Version: 6.00 Build 0)  -->
<svg version="1.1" id="Layer_2_1_" xmlns="http://www.w3.org/2000/svg" xmlns:xlink="http://www.w3.org/1999/xlink" x="0px" y="0px"
	 viewBox="0 0 492.5 439.7" style="enable-background:new 0 0 492.5 439.7;" xml:space="preserve">
<style type="text/css">
	.st0{fill:#61DAFB;}
</style>
<g>
	<path class="st0" d="M479.9,216.1c0-31.1-38.9-60.5-98.6-78.8c13.8-60.8,7.7-109.2-19.3-124.7c-6.2-3.6-13.5-5.4-21.4-5.4v21.3
		c4.4,0,7.9,0.9,10.9,2.5c13,7.5,18.7,35.9,14.3,72.4c-1.1,9-2.8,18.5-4.9,28.1c-18.7-4.6-39.2-8.1-60.7-10.4
		c-12.9-17.7-26.3-33.8-39.8-47.8c31.2-29,60.5-44.9,80.3-44.9V7.1l0,0c-26.3,0-60.7,18.7-95.6,51.3c-34.8-32.3-69.3-50.9-95.6-50.9
		v21.3c19.8,0,49.2,15.8,80.3,44.6c-13.4,14.1-26.8,30-39.5,47.7c-21.6,2.3-42.1,5.8-60.8,10.5c-2.2-9.6-3.8-18.8-5-27.7
		c-4.5-36.5,1.1-64.9,14-72.5c2.9-1.7,6.6-2.5,11-2.5V7.6l0,0c-8,0-15.3,1.7-21.6,5.4C101,28.5,95,76.8,108.9,137.4
		c-59.5,18.4-98.2,47.7-98.2,78.7c0,31.1,38.9,60.5,98.6,78.8c-13.8,60.8-7.7,109.2,19.3,124.7c6.2,3.6,13.5,5.4,21.5,5.4
		c26.3,0,60.7-18.7,95.6-51.3c34.8,32.3,69.3,50.9,95.6,50.9c8,0,15.3-1.7,21.6-5.4c26.9-15.5,32.9-63.8,19-124.4
		C441.2,276.6,479.9,247.1,479.9,216.1z M355.4,152.3c-3.5,12.3-7.9,25.1-12.9,37.8c-3.9-7.7-8-15.3-12.5-23
		c-4.4-7.7-9.1-15.1-13.8-22.4C329.7,146.8,342.8,149.3,355.4,152.3z M311.5,254.2c-7.5,12.9-15.1,25.2-23.1,36.5
		c-14.3,1.2-28.7,1.9-43.2,1.9c-14.4,0-28.9-0.7-43-1.8c-7.9-11.4-15.7-23.5-23.1-36.3c-7.3-12.5-13.9-25.3-19.9-38.1
		c5.9-12.8,12.6-25.6,19.8-38.2c7.5-12.9,15.1-25.2,23.1-36.5c14.3-1.2,28.7-1.9,43.2-1.9c14.4,0,28.9,0.7,43,1.8
		c7.9,11.4,15.7,23.5,23.1,36.3c7.3,12.5,13.9,25.3,19.9,38.1C325.3,228.8,318.7,241.7,311.5,254.2z M342.4,241.8
		c5.2,12.8,9.6,25.6,13.2,38.1c-12.5,3.1-25.7,5.6-39.4,7.7c4.7-7.4,9.4-14.9,13.8-22.7C334.4,257.2,338.5,249.4,342.4,241.8z
		 M245.5,343.8c-8.9-9.2-17.8-19.4-26.6-30.6c8.6,0.4,17.4,0.7,26.3,0.7c9,0,17.9-0.2,26.6-0.7C263.1,324.4,254.3,334.6,245.5,343.8
		z M174.3,287.5c-13.6-2-26.7-4.5-39.2-7.6c3.5-12.3,7.9-25.1,12.9-37.8c3.9,7.7,8,15.3,12.5,23C165,272.7,169.6,280.2,174.3,287.5z
		 M245,88.4c8.9,9.2,17.8,19.4,26.6,30.6c-8.6-0.4-17.4-0.7-26.3-0.7c-9,0-17.9,0.2-26.6,0.7C227.3,107.8,236.2,97.6,245,88.4z
		 M174.2,144.8c-4.7,7.4-9.4,14.9-13.8,22.7c-4.4,7.7-8.5,15.3-12.4,23c-5.2-12.8-9.6-25.6-13.2-38.1
		C147.3,149.4,160.5,146.8,174.2,144.8z M87.6,264.5c-33.9-14.4-55.8-33.4-55.8-48.4s21.9-34.1,55.8-48.4c8.2-3.5,17.2-6.7,26.5-9.7
		c5.5,18.7,12.6,38.3,21.5,58.3c-8.8,19.9-15.9,39.3-21.2,58C104.9,271.3,96,268.1,87.6,264.5z M139.1,401.2
		c-13-7.5-18.7-35.9-14.3-72.4c1.1-9,2.8-18.5,4.9-28.1c18.7,4.6,39.2,8.1,60.7,10.4c12.9,17.7,26.3,33.8,39.8,47.8
		c-31.2,29-60.5,44.9-80.3,44.9C145.6,403.7,142,402.8,139.1,401.2z M366,328.3c4.5,36.5-1.1,64.9-14,72.5c-2.9,1.7-6.6,2.5-11,2.5
		c-19.8,0-49.2-15.8-80.3-44.6c13.4-14.1,26.8-30,39.5-47.7c21.6-2.3,42.1-5.8,60.8-10.5C363.2,310.1,364.9,319.4,366,328.3z
		 M402.8,264.5c-8.2,3.5-17.2,6.7-26.5,9.7c-5.5-18.7-12.6-38.3-21.5-58.3c8.8-19.9,15.9-39.3,21.2-58c9.5,3,18.5,6.2,26.9,9.8
		c33.9,14.4,55.8,33.4,55.8,48.4C458.6,231.1,436.7,250.2,402.8,264.5z"/>
	<path class="st0" d="M149.4,7.5L149.4,7.5L149.4,7.5z"/>
	<circle class="st0" cx="245.2" cy="216.1" r="43.7"/>
	<path class="st0" d="M340.4,7.2L340.4,7.2L340.4,7.2z"/>
</g>
</svg>
