<?xml version="1.0" encoding="utf-8"?>
<!-- Generator: Adobe Illustrator 22.0.0, SVG Export Plug-In . SVG Version: 6.00 Build 0)  -->
<svg version="1.1" id="Layer_1" xmlns="http://www.w3.org/2000/svg" xmlns:xlink="http://www.w3.org/1999/xlink" x="0px" y="0px"
	 viewBox="0 0 150 30" style="enable-background:new 0 0 150 30;" xml:space="preserve">
<style type="text/css">
	.st0{fill:#D23C0F;}
</style>
<g>
	<g>
		<polygon class="st0" points="130.8,28.8 112.2,18.9 93.6,28.8 75,18.9 56.4,28.8 37.8,18.9 19.2,28.8 0,18.6 1.1,13.1 19.2,22.8 
			37.8,12.8 56.4,22.8 75,12.8 93.6,22.8 112.2,12.8 130.8,22.8 148.9,13.1 150,18.6 		"/>
	</g>
	<g>
		<polygon class="st0" points="130.8,17.6 112.2,7.7 93.6,17.6 75,7.7 56.4,17.6 37.8,7.7 19.2,17.6 0,7.4 1.1,1.9 19.2,11.6 
			37.8,1.6 56.4,11.6 75,1.6 93.6,11.6 112.2,1.6 130.8,11.6 148.9,1.9 150,7.4 		"/>
	</g>
</g>
</svg>
